<svg id="visual" viewBox="0 0 900 50" width="900" height="50" xmlns="http://www.w3.org/2000/svg" xmlns:xlink="http://www.w3.org/1999/xlink" version="1.1"><path d="M0 44L7.2 42.3C14.3 40.7 28.7 37.3 43 37C57.3 36.7 71.7 39.3 86 38.5C100.3 37.7 114.7 33.3 128.8 34.2C143 35 157 41 171.2 41.2C185.3 41.3 199.7 35.7 214 34.7C228.3 33.7 242.7 37.3 257 37.8C271.3 38.3 285.7 35.7 300 34.3C314.3 33 328.7 33 343 33.8C357.3 34.7 371.7 36.3 386 37.8C400.3 39.3 414.7 40.7 428.8 40.7C443 40.7 457 39.3 471.2 39.7C485.3 40 499.7 42 514 43.7C528.3 45.3 542.7 46.7 557 45.7C571.3 44.7 585.7 41.3 600 38.7C614.3 36 628.7 34 643 35.2C657.3 36.3 671.7 40.7 686 40.3C700.3 40 714.7 35 728.8 32.8C743 30.7 757 31.3 771.2 33.8C785.3 36.3 799.7 40.7 814 40.2C828.3 39.7 842.7 34.3 857 34.2C871.3 34 885.7 39 892.8 41.5L900 44L900 0L892.8 0C885.7 0 871.3 0 857 0C842.7 0 828.3 0 814 0C799.7 0 785.3 0 771.2 0C757 0 743 0 728.8 0C714.7 0 700.3 0 686 0C671.7 0 657.3 0 643 0C628.7 0 614.3 0 600 0C585.7 0 571.3 0 557 0C542.7 0 528.3 0 514 0C499.7 0 485.3 0 471.2 0C457 0 443 0 428.8 0C414.7 0 400.3 0 386 0C371.7 0 357.3 0 343 0C328.7 0 314.3 0 300 0C285.7 0 271.3 0 257 0C242.7 0 228.3 0 214 0C199.7 0 185.3 0 171.2 0C157 0 143 0 128.8 0C114.7 0 100.3 0 86 0C71.7 0 57.3 0 43 0C28.7 0 14.3 0 7.2 0L0 0Z" fill="#90a4d0"></path><path d="M0 36L7.2 35.8C14.3 35.7 28.7 35.3 43 34.3C57.3 33.3 71.7 31.7 86 29.5C100.3 27.3 114.7 24.7 128.8 25.3C143 26 157 30 171.2 31.7C185.3 33.3 199.7 32.7 214 31C228.3 29.3 242.7 26.7 257 27.5C271.3 28.3 285.7 32.7 300 32.8C314.3 33 328.7 29 343 27.2C357.3 25.3 371.7 25.7 386 25C400.3 24.3 414.7 22.7 428.8 22.2C443 21.7 457 22.3 471.2 22.2C485.3 22 499.7 21 514 21.5C528.3 22 542.7 24 557 25.8C571.3 27.7 585.7 29.3 600 31.3C614.3 33.3 628.7 35.7 643 36C657.3 36.3 671.7 34.7 686 33.8C700.3 33 714.7 33 728.8 32.2C743 31.3 757 29.7 771.2 30.3C785.3 31 799.7 34 814 33C828.3 32 842.7 27 857 26.3C871.3 25.7 885.7 29.3 892.8 31.2L900 33L900 0L892.8 0C885.7 0 871.3 0 857 0C842.7 0 828.3 0 814 0C799.7 0 785.3 0 771.2 0C757 0 743 0 728.8 0C714.7 0 700.3 0 686 0C671.7 0 657.3 0 643 0C628.7 0 614.3 0 600 0C585.7 0 571.3 0 557 0C542.7 0 528.3 0 514 0C499.7 0 485.3 0 471.2 0C457 0 443 0 428.8 0C414.7 0 400.3 0 386 0C371.7 0 357.3 0 343 0C328.7 0 314.3 0 300 0C285.7 0 271.3 0 257 0C242.7 0 228.3 0 214 0C199.7 0 185.3 0 171.2 0C157 0 143 0 128.8 0C114.7 0 100.3 0 86 0C71.7 0 57.3 0 43 0C28.7 0 14.3 0 7.2 0L0 0Z" fill="#909fcf"></path><path d="M0 13L7.2 12.7C14.3 12.3 28.7 11.7 43 11.5C57.3 11.3 71.7 11.7 86 12C100.3 12.3 114.7 12.7 128.8 15.3C143 18 157 23 171.2 25.3C185.3 27.7 199.7 27.3 214 25.7C228.3 24 242.7 21 257 21C271.3 21 285.7 24 300 24.8C314.3 25.7 328.7 24.3 343 22.5C357.3 20.7 371.7 18.3 386 16C400.3 13.7 414.7 11.3 428.8 13C443 14.7 457 20.3 471.2 21.8C485.3 23.3 499.7 20.7 514 19.7C528.3 18.7 542.7 19.3 557 21C571.3 22.7 585.7 25.3 600 25.8C614.3 26.3 628.7 24.7 643 23.2C657.3 21.7 671.7 20.3 686 18.7C700.3 17 714.7 15 728.8 15.7C743 16.3 757 19.7 771.2 20.5C785.3 21.3 799.7 19.7 814 18C828.3 16.3 842.7 14.7 857 13.8C871.3 13 885.7 13 892.8 13L900 13L900 0L892.8 0C885.7 0 871.3 0 857 0C842.7 0 828.3 0 814 0C799.7 0 785.3 0 771.2 0C757 0 743 0 728.8 0C714.7 0 700.3 0 686 0C671.7 0 657.3 0 643 0C628.7 0 614.3 0 600 0C585.7 0 571.3 0 557 0C542.7 0 528.3 0 514 0C499.7 0 485.3 0 471.2 0C457 0 443 0 428.8 0C414.7 0 400.3 0 386 0C371.7 0 357.3 0 343 0C328.7 0 314.3 0 300 0C285.7 0 271.3 0 257 0C242.7 0 228.3 0 214 0C199.7 0 185.3 0 171.2 0C157 0 143 0 128.8 0C114.7 0 100.3 0 86 0C71.7 0 57.3 0 43 0C28.7 0 14.3 0 7.2 0L0 0Z" fill="#9199cf"></path><path d="M0 1L7.2 3.2C14.3 5.3 28.7 9.7 43 12C57.3 14.3 71.7 14.7 86 12.7C100.3 10.7 114.7 6.3 128.8 6.5C143 6.7 157 11.3 171.2 11.5C185.3 11.7 199.7 7.3 214 6.2C228.3 5 242.7 7 257 9.3C271.3 11.7 285.7 14.3 300 15.5C314.3 16.7 328.7 16.3 343 16.5C357.3 16.7 371.7 17.3 386 15.5C400.3 13.7 414.7 9.3 428.8 7.2C443 5 457 5 471.2 5.8C485.3 6.7 499.7 8.3 514 7.8C528.3 7.3 542.7 4.7 557 3.3C571.3 2 585.7 2 600 2.7C614.3 3.3 628.7 4.7 643 4.8C657.3 5 671.7 4 686 5.8C700.3 7.7 714.7 12.3 728.8 12.5C743 12.7 757 8.3 771.2 6.5C785.3 4.7 799.7 5.3 814 7C828.3 8.7 842.7 11.3 857 10.8C871.3 10.3 885.7 6.7 892.8 4.8L900 3L900 0L892.8 0C885.7 0 871.3 0 857 0C842.7 0 828.3 0 814 0C799.7 0 785.3 0 771.2 0C757 0 743 0 728.8 0C714.7 0 700.3 0 686 0C671.7 0 657.3 0 643 0C628.7 0 614.3 0 600 0C585.7 0 571.3 0 557 0C542.7 0 528.3 0 514 0C499.7 0 485.3 0 471.2 0C457 0 443 0 428.8 0C414.7 0 400.3 0 386 0C371.7 0 357.3 0 343 0C328.7 0 314.3 0 300 0C285.7 0 271.3 0 257 0C242.7 0 228.3 0 214 0C199.7 0 185.3 0 171.2 0C157 0 143 0 128.8 0C114.7 0 100.3 0 86 0C71.7 0 57.3 0 43 0C28.7 0 14.3 0 7.2 0L0 0Z" fill="#9393cd"></path></svg>