<svg id="visual" viewBox="0 0 900 50" width="900" height="50" xmlns="http://www.w3.org/2000/svg" xmlns:xlink="http://www.w3.org/1999/xlink" version="1.1"><path d="M0 6L6.3 7.5C12.7 9 25.3 12 37.8 12.5C50.3 13 62.7 11 75.2 15.2C87.7 19.3 100.3 29.7 112.8 33C125.3 36.3 137.7 32.7 150.2 33.7C162.7 34.7 175.3 40.3 187.8 39.3C200.3 38.3 212.7 30.7 225.2 27C237.7 23.3 250.3 23.7 262.8 21.3C275.3 19 287.7 14 300.2 10.3C312.7 6.7 325.3 4.3 337.8 4.2C350.3 4 362.7 6 375.2 8.8C387.7 11.7 400.3 15.3 412.8 20.7C425.3 26 437.7 33 450 31.5C462.3 30 474.7 20 487.2 21.5C499.7 23 512.3 36 525 41.3C537.7 46.7 550.3 44.3 562.8 41.3C575.3 38.3 587.7 34.7 600.2 35.8C612.7 37 625.3 43 637.8 39.2C650.3 35.3 662.7 21.7 675.2 15.5C687.7 9.3 700.3 10.7 712.8 12.2C725.3 13.7 737.7 15.3 750.2 13.5C762.7 11.7 775.3 6.3 787.8 9.5C800.3 12.7 812.7 24.3 825.2 31.5C837.7 38.7 850.3 41.3 862.8 41.7C875.3 42 887.7 40 893.8 39L900 38L900 0L893.8 0C887.7 0 875.3 0 862.8 0C850.3 0 837.7 0 825.2 0C812.7 0 800.3 0 787.8 0C775.3 0 762.7 0 750.2 0C737.7 0 725.3 0 712.8 0C700.3 0 687.7 0 675.2 0C662.7 0 650.3 0 637.8 0C625.3 0 612.7 0 600.2 0C587.7 0 575.3 0 562.8 0C550.3 0 537.7 0 525 0C512.3 0 499.7 0 487.2 0C474.7 0 462.3 0 450 0C437.7 0 425.3 0 412.8 0C400.3 0 387.7 0 375.2 0C362.7 0 350.3 0 337.8 0C325.3 0 312.7 0 300.2 0C287.7 0 275.3 0 262.8 0C250.3 0 237.7 0 225.2 0C212.7 0 200.3 0 187.8 0C175.3 0 162.7 0 150.2 0C137.7 0 125.3 0 112.8 0C100.3 0 87.7 0 75.2 0C62.7 0 50.3 0 37.8 0C25.3 0 12.7 0 6.3 0L0 0Z" fill="#6788C6" stroke-linecap="round" stroke-linejoin="miter"></path></svg>