<svg id="visual" viewBox="0 0 900 50" width="900" height="50" xmlns="http://www.w3.org/2000/svg" xmlns:xlink="http://www.w3.org/1999/xlink" version="1.1"><path d="M0 40L6.3 39C12.7 38 25.3 36 37.8 32.7C50.3 29.3 62.7 24.7 75.2 20.3C87.7 16 100.3 12 112.8 14.3C125.3 16.7 137.7 25.3 150.2 28.5C162.7 31.7 175.3 29.3 187.8 24.5C200.3 19.7 212.7 12.3 225.2 12.5C237.7 12.7 250.3 20.3 262.8 23.5C275.3 26.7 287.7 25.3 300.2 27.3C312.7 29.3 325.3 34.7 337.8 38.7C350.3 42.7 362.7 45.3 375.2 39C387.7 32.7 400.3 17.3 412.8 10.8C425.3 4.3 437.7 6.7 450 13.8C462.3 21 474.7 33 487.2 36.2C499.7 39.3 512.3 33.7 525 27.5C537.7 21.3 550.3 14.7 562.8 17.5C575.3 20.3 587.7 32.7 600.2 32.2C612.7 31.7 625.3 18.3 637.8 11.2C650.3 4 662.7 3 675.2 7.5C687.7 12 700.3 22 712.8 23.2C725.3 24.3 737.7 16.7 750.2 12.7C762.7 8.7 775.3 8.3 787.8 12.8C800.3 17.3 812.7 26.7 825.2 26C837.7 25.3 850.3 14.7 862.8 13.8C875.3 13 887.7 22 893.8 26.5L900 31L900 0L893.8 0C887.7 0 875.3 0 862.8 0C850.3 0 837.7 0 825.2 0C812.7 0 800.3 0 787.8 0C775.3 0 762.7 0 750.2 0C737.7 0 725.3 0 712.8 0C700.3 0 687.7 0 675.2 0C662.7 0 650.3 0 637.8 0C625.3 0 612.7 0 600.2 0C587.7 0 575.3 0 562.8 0C550.3 0 537.7 0 525 0C512.3 0 499.7 0 487.2 0C474.7 0 462.3 0 450 0C437.7 0 425.3 0 412.8 0C400.3 0 387.7 0 375.2 0C362.7 0 350.3 0 337.8 0C325.3 0 312.7 0 300.2 0C287.7 0 275.3 0 262.8 0C250.3 0 237.7 0 225.2 0C212.7 0 200.3 0 187.8 0C175.3 0 162.7 0 150.2 0C137.7 0 125.3 0 112.8 0C100.3 0 87.7 0 75.2 0C62.7 0 50.3 0 37.8 0C25.3 0 12.7 0 6.3 0L0 0Z" fill="#90A4D0" stroke-linecap="round" stroke-linejoin="miter"></path></svg>